<mxfile host="app.diagrams.net" modified="2024-02-01T12:09:44.928Z" agent="Mozilla/5.0 (Windows NT 10.0; Win64; x64) AppleWebKit/537.36 (KHTML, like Gecko) Chrome/121.0.0.0 Safari/537.36" etag="Fr3cDBu0fhE2DfCM7E1l" version="23.1.0" type="github">
  <diagram id="C5RBs43oDa-KdzZeNtuy" name="Page-1">
    <mxGraphModel dx="1434" dy="749" grid="1" gridSize="10" guides="1" tooltips="1" connect="1" arrows="1" fold="1" page="1" pageScale="1" pageWidth="827" pageHeight="1169" math="0" shadow="0">
      <root>
        <mxCell id="WIyWlLk6GJQsqaUBKTNV-0" />
        <mxCell id="WIyWlLk6GJQsqaUBKTNV-1" parent="WIyWlLk6GJQsqaUBKTNV-0" />
        <mxCell id="TYMmkkVEwMMcGR_JoT5w-33" value="" style="rounded=1;whiteSpace=wrap;html=1;" parent="WIyWlLk6GJQsqaUBKTNV-1" vertex="1">
          <mxGeometry x="340" y="80" width="450" height="880" as="geometry" />
        </mxCell>
        <mxCell id="TYMmkkVEwMMcGR_JoT5w-32" value="" style="rounded=1;whiteSpace=wrap;html=1;" parent="WIyWlLk6GJQsqaUBKTNV-1" vertex="1">
          <mxGeometry x="10" y="80" width="280" height="400" as="geometry" />
        </mxCell>
        <mxCell id="TYMmkkVEwMMcGR_JoT5w-4" value="" style="edgeStyle=orthogonalEdgeStyle;rounded=0;orthogonalLoop=1;jettySize=auto;html=1;entryX=0.5;entryY=0;entryDx=0;entryDy=0;" parent="WIyWlLk6GJQsqaUBKTNV-1" source="TYMmkkVEwMMcGR_JoT5w-0" target="TYMmkkVEwMMcGR_JoT5w-2" edge="1">
          <mxGeometry relative="1" as="geometry">
            <mxPoint x="100" y="230" as="targetPoint" />
          </mxGeometry>
        </mxCell>
        <mxCell id="TYMmkkVEwMMcGR_JoT5w-0" value="组织架构图查询入口" style="rounded=1;whiteSpace=wrap;html=1;" parent="WIyWlLk6GJQsqaUBKTNV-1" vertex="1">
          <mxGeometry x="40" y="120" width="120" height="40" as="geometry" />
        </mxCell>
        <mxCell id="TYMmkkVEwMMcGR_JoT5w-1" value="调用组织服务接口查询所有组织部门数据" style="rounded=1;whiteSpace=wrap;html=1;direction=south;flipV=1;flipH=0;horizontal=1;" parent="WIyWlLk6GJQsqaUBKTNV-1" vertex="1">
          <mxGeometry x="200" y="160" width="70" height="120" as="geometry" />
        </mxCell>
        <mxCell id="TYMmkkVEwMMcGR_JoT5w-6" value="" style="edgeStyle=orthogonalEdgeStyle;rounded=0;orthogonalLoop=1;jettySize=auto;html=1;" parent="WIyWlLk6GJQsqaUBKTNV-1" source="TYMmkkVEwMMcGR_JoT5w-2" target="TYMmkkVEwMMcGR_JoT5w-5" edge="1">
          <mxGeometry relative="1" as="geometry" />
        </mxCell>
        <mxCell id="TYMmkkVEwMMcGR_JoT5w-2" value="构建树形数据结构" style="rounded=1;whiteSpace=wrap;html=1;" parent="WIyWlLk6GJQsqaUBKTNV-1" vertex="1">
          <mxGeometry x="40" y="280" width="120" height="40" as="geometry" />
        </mxCell>
        <mxCell id="TYMmkkVEwMMcGR_JoT5w-5" value="返回前端" style="rounded=1;whiteSpace=wrap;html=1;" parent="WIyWlLk6GJQsqaUBKTNV-1" vertex="1">
          <mxGeometry x="40" y="386" width="120" height="40" as="geometry" />
        </mxCell>
        <mxCell id="TYMmkkVEwMMcGR_JoT5w-7" value="" style="shape=flexArrow;endArrow=classic;startArrow=classic;html=1;rounded=0;" parent="WIyWlLk6GJQsqaUBKTNV-1" target="TYMmkkVEwMMcGR_JoT5w-1" edge="1">
          <mxGeometry width="100" height="100" relative="1" as="geometry">
            <mxPoint x="100" y="220" as="sourcePoint" />
            <mxPoint x="400" y="340" as="targetPoint" />
          </mxGeometry>
        </mxCell>
        <mxCell id="31YjGGnE2bTTBVAQpwos-2" value="" style="edgeStyle=orthogonalEdgeStyle;rounded=0;orthogonalLoop=1;jettySize=auto;html=1;" edge="1" parent="WIyWlLk6GJQsqaUBKTNV-1" source="TYMmkkVEwMMcGR_JoT5w-10" target="31YjGGnE2bTTBVAQpwos-1">
          <mxGeometry relative="1" as="geometry" />
        </mxCell>
        <mxCell id="TYMmkkVEwMMcGR_JoT5w-10" value="员工架构图入口" style="rounded=1;whiteSpace=wrap;html=1;" parent="WIyWlLk6GJQsqaUBKTNV-1" vertex="1">
          <mxGeometry x="480" y="93" width="120" height="40" as="geometry" />
        </mxCell>
        <mxCell id="TYMmkkVEwMMcGR_JoT5w-14" value="" style="edgeStyle=orthogonalEdgeStyle;rounded=0;orthogonalLoop=1;jettySize=auto;html=1;" parent="WIyWlLk6GJQsqaUBKTNV-1" source="TYMmkkVEwMMcGR_JoT5w-11" target="TYMmkkVEwMMcGR_JoT5w-13" edge="1">
          <mxGeometry relative="1" as="geometry" />
        </mxCell>
        <mxCell id="TYMmkkVEwMMcGR_JoT5w-11" value="查询所有员工生效任职（主+兼）记录“主管”字段为当前登录员工id的数据&lt;br&gt;最少三表关联+特征翻倍" style="whiteSpace=wrap;html=1;rounded=1;" parent="WIyWlLk6GJQsqaUBKTNV-1" vertex="1">
          <mxGeometry x="450" y="283" width="180" height="70" as="geometry" />
        </mxCell>
        <mxCell id="TYMmkkVEwMMcGR_JoT5w-18" value="" style="edgeStyle=orthogonalEdgeStyle;rounded=0;orthogonalLoop=1;jettySize=auto;html=1;" parent="WIyWlLk6GJQsqaUBKTNV-1" source="TYMmkkVEwMMcGR_JoT5w-13" target="TYMmkkVEwMMcGR_JoT5w-17" edge="1">
          <mxGeometry relative="1" as="geometry" />
        </mxCell>
        <mxCell id="TYMmkkVEwMMcGR_JoT5w-13" value="收集查询的员工记录中的员工id" style="whiteSpace=wrap;html=1;rounded=1;" parent="WIyWlLk6GJQsqaUBKTNV-1" vertex="1">
          <mxGeometry x="450" y="403" width="180" height="50" as="geometry" />
        </mxCell>
        <mxCell id="31YjGGnE2bTTBVAQpwos-6" value="" style="edgeStyle=orthogonalEdgeStyle;rounded=0;orthogonalLoop=1;jettySize=auto;html=1;" edge="1" parent="WIyWlLk6GJQsqaUBKTNV-1" source="TYMmkkVEwMMcGR_JoT5w-17" target="31YjGGnE2bTTBVAQpwos-4">
          <mxGeometry relative="1" as="geometry" />
        </mxCell>
        <mxCell id="TYMmkkVEwMMcGR_JoT5w-17" value="查询所有员工生效任职（主+兼）记录“主管”字段为当前登录员工id的数据&lt;br style=&quot;border-color: var(--border-color);&quot;&gt;最少三表关联+特征翻倍" style="whiteSpace=wrap;html=1;rounded=1;" parent="WIyWlLk6GJQsqaUBKTNV-1" vertex="1">
          <mxGeometry x="440" y="530" width="200" height="70" as="geometry" />
        </mxCell>
        <mxCell id="TYMmkkVEwMMcGR_JoT5w-19" value="" style="shape=flexArrow;endArrow=classic;html=1;rounded=0;" parent="WIyWlLk6GJQsqaUBKTNV-1" edge="1">
          <mxGeometry width="50" height="50" relative="1" as="geometry">
            <mxPoint x="400" y="180" as="sourcePoint" />
            <mxPoint x="400" y="480" as="targetPoint" />
          </mxGeometry>
        </mxCell>
        <mxCell id="TYMmkkVEwMMcGR_JoT5w-21" value="第一层级员工查询" style="edgeLabel;html=1;align=center;verticalAlign=middle;resizable=0;points=[];" parent="TYMmkkVEwMMcGR_JoT5w-19" vertex="1" connectable="0">
          <mxGeometry x="-0.0944" y="-2" relative="1" as="geometry">
            <mxPoint as="offset" />
          </mxGeometry>
        </mxCell>
        <mxCell id="TYMmkkVEwMMcGR_JoT5w-22" value="" style="shape=flexArrow;endArrow=classic;html=1;rounded=0;" parent="WIyWlLk6GJQsqaUBKTNV-1" edge="1">
          <mxGeometry width="50" height="50" relative="1" as="geometry">
            <mxPoint x="400" y="520" as="sourcePoint" />
            <mxPoint x="400" y="720" as="targetPoint" />
          </mxGeometry>
        </mxCell>
        <mxCell id="TYMmkkVEwMMcGR_JoT5w-23" value="第二层级员工查询" style="edgeLabel;html=1;align=center;verticalAlign=middle;resizable=0;points=[];" parent="TYMmkkVEwMMcGR_JoT5w-22" vertex="1" connectable="0">
          <mxGeometry x="-0.0944" y="-2" relative="1" as="geometry">
            <mxPoint as="offset" />
          </mxGeometry>
        </mxCell>
        <mxCell id="TYMmkkVEwMMcGR_JoT5w-34" value="" style="endArrow=none;dashed=1;html=1;rounded=0;" parent="WIyWlLk6GJQsqaUBKTNV-1" edge="1">
          <mxGeometry width="50" height="50" relative="1" as="geometry">
            <mxPoint x="400" y="930" as="sourcePoint" />
            <mxPoint x="400" y="100" as="targetPoint" />
          </mxGeometry>
        </mxCell>
        <mxCell id="31YjGGnE2bTTBVAQpwos-11" value="" style="edgeStyle=orthogonalEdgeStyle;rounded=0;orthogonalLoop=1;jettySize=auto;html=1;" edge="1" parent="WIyWlLk6GJQsqaUBKTNV-1" source="TYMmkkVEwMMcGR_JoT5w-37" target="31YjGGnE2bTTBVAQpwos-8">
          <mxGeometry relative="1" as="geometry" />
        </mxCell>
        <mxCell id="TYMmkkVEwMMcGR_JoT5w-37" value="。。。。。" style="whiteSpace=wrap;html=1;rounded=1;" parent="WIyWlLk6GJQsqaUBKTNV-1" vertex="1">
          <mxGeometry x="460" y="760" width="160" height="30" as="geometry" />
        </mxCell>
        <mxCell id="31YjGGnE2bTTBVAQpwos-3" value="" style="edgeStyle=orthogonalEdgeStyle;rounded=0;orthogonalLoop=1;jettySize=auto;html=1;" edge="1" parent="WIyWlLk6GJQsqaUBKTNV-1" source="31YjGGnE2bTTBVAQpwos-1" target="TYMmkkVEwMMcGR_JoT5w-11">
          <mxGeometry relative="1" as="geometry" />
        </mxCell>
        <mxCell id="31YjGGnE2bTTBVAQpwos-1" value="获取当前登员工的id" style="whiteSpace=wrap;html=1;rounded=1;" vertex="1" parent="WIyWlLk6GJQsqaUBKTNV-1">
          <mxGeometry x="455" y="183.5" width="170" height="45" as="geometry" />
        </mxCell>
        <mxCell id="31YjGGnE2bTTBVAQpwos-10" value="" style="edgeStyle=orthogonalEdgeStyle;rounded=0;orthogonalLoop=1;jettySize=auto;html=1;" edge="1" parent="WIyWlLk6GJQsqaUBKTNV-1" source="31YjGGnE2bTTBVAQpwos-4" target="TYMmkkVEwMMcGR_JoT5w-37">
          <mxGeometry relative="1" as="geometry" />
        </mxCell>
        <mxCell id="31YjGGnE2bTTBVAQpwos-4" value="收集查询的员工记录中的员工id" style="whiteSpace=wrap;html=1;rounded=1;" vertex="1" parent="WIyWlLk6GJQsqaUBKTNV-1">
          <mxGeometry x="450" y="660" width="180" height="50" as="geometry" />
        </mxCell>
        <mxCell id="31YjGGnE2bTTBVAQpwos-8" value="整理树结构" style="whiteSpace=wrap;html=1;rounded=1;" vertex="1" parent="WIyWlLk6GJQsqaUBKTNV-1">
          <mxGeometry x="470" y="850" width="140" height="50" as="geometry" />
        </mxCell>
      </root>
    </mxGraphModel>
  </diagram>
</mxfile>
